# xmcd
#
# Track frame offsets: 
#        150
#        31420
#        48127
#        69647
#        90300
#        107327
#        137832
#        155270
#        172417
#        188032
#        197155
#        227580
#        270142
#
# Disc length: 4081 seconds
#
# Revision: 2
# Processed by: cddbd v1.5.2PL0 Copyright (c) Steve Scherf et al.
# Submitted via: ExactAudioCopy v0.99pb3
#
DISCID=a20fef0d
DTITLE=Curtis Mayfield - Curtis - Live!
DYEAR=1971
DGENRE=Soul
TTITLE0=Mighty Mighty (Spade And Whitey)
TTITLE1=I Plan To Stay A Beliver
TTITLE2=We're A Winner
TTITLE3=We've Only Just Begun
TTITLE4=People Get Ready
TTITLE5=Stare And Stare
TTITLE6=Check Out Your Mind
TTITLE7=Gypsy Woman
TTITLE8=The Makings Of You
TTITLE9=Rap Intro Of Musicians
TTITLE10=We The People Who Are Darker Than Blue
TTITLE11=(Don't Worry) If There's A Hell Below, We're All Going To Go
TTITLE12=Stone Junkie
EXTD=
EXTT0=
EXTT1=
EXTT2=
EXTT3=
EXTT4=
EXTT5=
EXTT6=
EXTT7=
EXTT8=
EXTT9=
EXTT10=
EXTT11=
EXTT12=
PLAYORDER=
